<?xml version="1.0" encoding="utf-8"?>
<!-- Generated by IcoMoon.io -->
<!DOCTYPE svg PUBLIC "-//W3C//DTD SVG 1.1//EN" "http://www.w3.org/Graphics/SVG/1.1/DTD/svg11.dtd">
<svg version="1.1" xmlns="http://www.w3.org/2000/svg" xmlns:xlink="http://www.w3.org/1999/xlink" width="32" height="32" viewBox="0 0 32 32">
<g>
	<line stroke-width="1" x1="" y1="" x2="" y2="" stroke="#449FDB" opacity=""></line>
</g>
	<path d="M0 16q0-3.732 1.839-6.884t4.991-4.991 6.884-1.839 6.884 1.839 4.991 4.991 1.839 6.884-1.839 6.884-4.991 4.991-6.884 1.839-6.884-1.839-4.991-4.991-1.839-6.884zM4.5 16.339q0 0.482 0.321 0.804l6.464 6.464q0.339 0.339 0.804 0.339 0.482 0 0.821-0.339l9.696-9.696q0.321-0.321 0.321-0.804 0-0.5-0.321-0.821l-1.625-1.607q-0.339-0.339-0.804-0.339t-0.804 0.339l-7.286 7.268-4.036-4.036q-0.339-0.339-0.804-0.339t-0.804 0.339l-1.625 1.607q-0.321 0.321-0.321 0.821z" fill="#000000"></path>
</svg>
