<?xml version="1.0" encoding="utf-8"?>
<!-- Generated by IcoMoon.io -->
<!DOCTYPE svg PUBLIC "-//W3C//DTD SVG 1.1//EN" "http://www.w3.org/Graphics/SVG/1.1/DTD/svg11.dtd">
<svg version="1.1" xmlns="http://www.w3.org/2000/svg" xmlns:xlink="http://www.w3.org/1999/xlink" width="32" height="32" viewBox="0 0 32 32">
<g>
	<line stroke-width="1" x1="" y1="" x2="" y2="" stroke="#449FDB" opacity=""></line>
</g>
	<path d="M0 16q0-3.732 1.839-6.884t4.991-4.991 6.884-1.839 6.884 1.839 4.991 4.991 1.839 6.884-1.839 6.884-4.991 4.991-6.884 1.839-6.884-1.839-4.991-4.991-1.839-6.884zM5.714 17.143q0 0.464 0.339 0.804t0.804 0.339h4.571v4.571q0 0.464 0.339 0.804t0.804 0.339h2.286q0.464 0 0.804-0.339t0.339-0.804v-4.571h4.571q0.464 0 0.804-0.339t0.339-0.804v-2.286q0-0.464-0.339-0.804t-0.804-0.339h-4.571v-4.571q0-0.464-0.339-0.804t-0.804-0.339h-2.286q-0.464 0-0.804 0.339t-0.339 0.804v4.571h-4.571q-0.464 0-0.804 0.339t-0.339 0.804v2.286z" fill="#000000"></path>
</svg>
